<?xml version="1.0"?>
<svg xmlns="http://www.w3.org/2000/svg" xmlns:xlink="http://www.w3.org/1999/xlink" xmlns:svgjs="http://svgjs.com/svgjs" version="1.1" width="512" height="512" x="0" y="0" viewBox="0 0 64 64" style="enable-background:new 0 0 512 512" xml:space="preserve" class=""><g><g xmlns="http://www.w3.org/2000/svg"><path d="m34 25h2v2h-2z" fill="#d33327" data-original="#000000" style=""/><path d="m38 25h2v2h-2z" fill="#d33327" data-original="#000000" style=""/><path d="m38 29h2v2h-2z" fill="#d33327" data-original="#000000" style=""/><path d="m34 29h2v2h-2z" fill="#d33327" data-original="#000000" style=""/><path d="m5 57h2v2h-2z" fill="#d33327" data-original="#000000" style=""/><path d="m9 57h2v2h-2z" fill="#d33327" data-original="#000000" style=""/><path d="m29 57h2v2h-2z" fill="#d33327" data-original="#000000" style=""/><path d="m33 57h2v2h-2z" fill="#d33327" data-original="#000000" style=""/><path d="m62 49h-5v-5c0-.553-.447-1-1-1h-23v-6h15v-2h-4v-13c0-.552-.447-1-1-1h-9v-9c0-.552-.447-1-1-1h-12c-.553 0-1 .448-1 1v23h-4v2h15v6h-23c-.553 0-1 .447-1 1v5h-5c-.553 0-1 .447-1 1v12c0 .553.447 1 1 1h12c.553 0 1-.447 1-1v-12c0-.553-.447-1-1-1h-5v-4h22v4h-5c-.553 0-1 .447-1 1v12c0 .553.447 1 1 1h12c.553 0 1-.447 1-1v-12c0-.553-.447-1-1-1h-5v-4h22v4h-5c-.553 0-1 .447-1 1v12c0 .553.447 1 1 1h12c.553 0 1-.447 1-1v-12c0-.553-.447-1-1-1zm-36-24v4h-4v-4zm-4-2v-4h4v4zm6 2h2v4h-2zm2 6v4h-2v-4zm12 4h-10v-12h10zm-11-14c-.553 0-1 .448-1 1v1h-2v-4h4v2zm1-4h-4v-4h4zm-6-4v4h-4v-4zm-4 18h4v4h-4zm-19 30v-6h10v6zm10-8h-10v-2h10zm14 8v-6h10v6zm10-8h-10v-2h10zm24-2v2h-10v-2zm-10 10v-6h10v6z" fill="#d33327" data-original="#000000" style=""/><path d="m53 57h2v2h-2z" fill="#d33327" data-original="#000000" style=""/><path d="m57 57h2v2h-2z" fill="#d33327" data-original="#000000" style=""/><path d="m48.793 8.207c.767.768 1.207 1.83 1.207 2.914v.879h2v-.879c0-1.634-.637-3.171-1.793-4.328-1.155-1.156-2.692-1.793-4.328-1.793h-.879v2h.879c1.101 0 2.136.429 2.914 1.207z" fill="#d33327" data-original="#000000" style=""/><path d="m51.793 5.207c1.423 1.423 2.207 3.316 2.207 5.329v1.464h2v-1.464c0-2.547-.992-4.942-2.793-6.743s-4.195-2.793-6.742-2.793h-1.465v2h1.465c2.013 0 3.904.784 5.328 2.207z" fill="#d33327" data-original="#000000" style=""/><path d="m12 11.121v.879h2v-.879c0-1.084.44-2.146 1.207-2.914.778-.778 1.813-1.207 2.914-1.207h.879v-2h-.879c-1.636 0-3.173.637-4.328 1.793-1.156 1.157-1.793 2.694-1.793 4.328z" fill="#d33327" data-original="#000000" style=""/><path d="m10 10.536c0-2.013.784-3.905 2.207-5.329 1.424-1.423 3.315-2.207 5.328-2.207h1.465v-2h-1.465c-2.547 0-4.941.992-6.742 2.793s-2.793 4.196-2.793 6.743v1.464h2z" fill="#d33327" data-original="#000000" style=""/></g></g></svg>
