<?xml version="1.0"?>
<svg xmlns="http://www.w3.org/2000/svg" xmlns:xlink="http://www.w3.org/1999/xlink" xmlns:svgjs="http://svgjs.com/svgjs" version="1.1" width="512" height="512" x="0" y="0" viewBox="0 0 512 512" style="enable-background:new 0 0 512 512" xml:space="preserve" class=""><g><g xmlns="http://www.w3.org/2000/svg"><path d="m16 411.998c16.451 0 23.876 3.714 33.277 8.417 10.857 5.431 23.163 11.587 46.7 11.587 23.541 0 35.849-6.156 46.708-11.587 9.404-4.703 16.832-8.418 33.29-8.418 16.466 0 23.896 3.715 33.305 8.419 10.862 5.431 23.174 11.586 46.721 11.586s35.858-6.155 46.721-11.586c9.408-4.704 16.839-8.419 33.305-8.419 16.458 0 23.886 3.715 33.29 8.418 10.859 5.431 23.167 11.587 46.708 11.587 23.537 0 35.843-6.156 46.7-11.587 9.401-4.703 16.826-8.417 33.277-8.417 8.284 0 15-6.716 15-15s-6.716-15-15-15c-11.536 0-20.37 1.481-27.662 3.628l32.305-145.372c.987-4.441-.095-9.091-2.942-12.64-2.849-3.549-7.153-5.614-11.703-5.614h-21.972l-35.547-53.32c-2.782-4.173-7.466-6.68-12.481-6.68h-15v-55c0-8.284-6.716-15-15-15h-30v-77c0-8.284-6.716-15-15-15h-70c-8.284 0-15 6.716-15 15v77h-30c-8.284 0-15 6.716-15 15v55h-15c-8.284 0-15 6.716-15 15v95h-20.81l-9.213-165.832c-.442-7.949-7.016-14.168-14.977-14.168h-15v-25c0-8.284-6.716-15-15-15s-15 6.716-15 15v25h-15c-7.961 0-14.535 6.219-14.977 14.168l-9.213 165.832h-5.81c-4.76 0-9.238 2.259-12.066 6.088s-3.67 8.773-2.271 13.323l31.511 102.411c-.159-.08-.315-.157-.475-.237-10.857-5.431-23.162-11.587-46.699-11.587-8.284 0-15 6.716-15 15s6.716 15 15 15zm270-381.998h40v62h-40zm-45 92h130v40h-130zm-30 70h196.972l20 30h-58.121c-35.382 0-67.1 19.319-83.405 50h-75.446zm-120.81-70h31.62l8.333 150h-48.286zm205.81 180c6.134 0 11.649-3.734 13.927-9.429 9.858-24.646 33.38-40.571 59.924-40.571h97.449l-32.843 147.792c-4.906 1.373-10.656 2.211-18.435 2.211-16.458 0-23.885-3.715-33.289-8.418-10.859-5.431-23.167-11.587-46.708-11.587-23.547 0-35.858 6.155-46.721 11.586-9.408 4.704-16.839 8.419-33.305 8.419s-23.896-3.715-33.305-8.419c-10.862-5.431-23.174-11.586-46.721-11.586-23.542 0-35.85 6.156-46.708 11.587-9.188 4.595-16.513 8.237-32.192 8.402l-30.763-99.987z" fill="#d33327" data-original="#000000" style=""/><path d="m496 461.996c-23.537 0-35.842 6.156-46.699 11.587-9.401 4.703-16.826 8.417-33.278 8.417-16.458 0-23.885-3.715-33.289-8.418-10.859-5.431-23.167-11.586-46.708-11.586-23.547 0-35.858 6.155-46.72 11.585-9.409 4.704-16.84 8.419-33.306 8.419s-23.897-3.715-33.305-8.419c-10.862-5.43-23.173-11.585-46.72-11.585-23.542 0-35.85 6.156-46.708 11.586-9.404 4.703-16.832 8.418-33.289 8.418-16.452 0-23.877-3.714-33.278-8.417-10.858-5.432-23.163-11.587-46.7-11.587-8.284 0-15 6.716-15 15s6.716 15 15 15c16.452 0 23.876 3.714 33.277 8.417 10.857 5.431 23.163 11.587 46.7 11.587 23.541 0 35.849-6.156 46.708-11.586 9.404-4.703 16.832-8.418 33.29-8.418 16.466 0 23.897 3.715 33.305 8.419 10.862 5.43 23.173 11.585 46.72 11.585s35.858-6.155 46.72-11.585c9.408-4.704 16.839-8.419 33.305-8.419 16.458 0 23.886 3.715 33.29 8.418 10.859 5.43 23.167 11.586 46.708 11.586 23.537 0 35.843-6.156 46.7-11.587 9.401-4.703 16.826-8.417 33.277-8.417 8.284 0 15-6.716 15-15s-6.716-15-15-15z" fill="#d33327" data-original="#000000" style=""/><circle cx="256" cy="342" r="15" fill="#d33327" data-original="#000000" style=""/><circle cx="316" cy="342" r="15" fill="#d33327" data-original="#000000" style=""/><circle cx="376" cy="342" r="15" fill="#d33327" data-original="#000000" style=""/><circle cx="196" cy="342" r="15" fill="#d33327" data-original="#000000" style=""/><circle cx="136" cy="342" r="15" fill="#d33327" data-original="#000000" style=""/></g></g></svg>
