<?xml version="1.0"?>
<svg xmlns="http://www.w3.org/2000/svg" xmlns:xlink="http://www.w3.org/1999/xlink" xmlns:svgjs="http://svgjs.com/svgjs" version="1.1" width="512" height="512" x="0" y="0" viewBox="0 0 512 512" style="enable-background:new 0 0 512 512" xml:space="preserve"><g><g xmlns="http://www.w3.org/2000/svg"><g><path d="m478.277 270.224c4.334-6.322 6.877-13.965 6.877-22.192 0-21.696-17.65-39.347-39.347-39.347-2.257 0-4.467.202-6.621.568-19.454-57.176-65.481-102.154-123.305-120.159-4.311-12.508-13.888-22.583-26.078-27.555 4.335-6.322 6.877-13.965 6.877-22.192.001-21.696-17.651-39.347-39.347-39.347s-39.347 17.651-39.347 39.347c0 8.228 2.542 15.87 6.877 22.192-12.728 5.192-22.609 15.946-26.619 29.226-56 19.209-100.244 63.924-118.79 120.225-4.146-1.489-8.61-2.306-13.262-2.306-21.696 0-39.347 17.651-39.347 39.347 0 8.228 2.542 15.87 6.877 22.192-16.74 6.828-28.57 23.275-28.57 42.441v7.333c0 6.446 5.244 11.69 11.69 11.69h63.39c21.05 61.226 72.607 108.374 136.435 123.211-12.275 8.228-20.375 22.221-20.375 38.077v7.333c0 6.446 5.244 11.69 11.69 11.69h98.7c6.446 0 11.69-5.244 11.69-11.69v-7.333c0-15.37-7.614-28.986-19.262-37.301 65.42-13.914 118.463-61.659 139.891-123.987h7.999c4.143 0 7.5-3.358 7.5-7.5s-3.357-7.5-7.5-7.5h-47.232v-4.023c0-15.522 11.535-28.395 26.482-30.513 5.766 3.318 12.441 5.227 19.558 5.227s13.792-1.909 19.558-5.227c14.947 2.117 26.482 14.991 26.482 30.513v4.023h-9.848c-4.143 0-7.5 3.358-7.5 7.5s3.357 7.5 7.5 7.5h13.158c6.445 0 11.689-5.244 11.689-11.69v-7.333c.001-19.164-11.83-35.611-28.57-42.44zm-220.944-255.224c13.426 0 24.348 10.922 24.348 24.347s-10.922 24.347-24.348 24.347c-13.425 0-24.347-10.922-24.347-24.347s10.922-24.347 24.347-24.347zm-46.04 88.98c0-15.522 11.535-28.395 26.482-30.513 5.766 3.318 12.441 5.227 19.558 5.227s13.792-1.909 19.558-5.227c14.948 2.117 26.483 14.991 26.483 30.513v4.023h-92.081zm-145.101 119.705c13.426 0 24.348 10.922 24.348 24.347s-10.922 24.347-24.348 24.347c-13.425 0-24.347-10.922-24.347-24.347s10.923-24.347 24.347-24.347zm-46.04 93.004v-4.023c0-15.522 11.535-28.395 26.482-30.513 5.766 3.318 12.441 5.227 19.558 5.227s13.792-1.909 19.558-5.227c14.948 2.117 26.483 14.991 26.483 30.513v4.023zm283.222 176.288v4.023h-92.081v-4.023c0-15.522 11.535-28.395 26.482-30.513 5.766 3.318 12.441 5.227 19.558 5.227s13.792-1.909 19.558-5.227c14.948 2.118 26.483 14.991 26.483 30.513zm-70.388-64.633c0-13.425 10.922-24.348 24.347-24.348 13.426 0 24.348 10.922 24.348 24.348s-10.922 24.347-24.348 24.347c-13.425 0-24.347-10.922-24.347-24.347zm180.351-158.119c-16.739 6.828-28.57 23.275-28.57 42.441v7.333c0 6.446 5.244 11.69 11.689 11.69h26.586c-20.947 55.477-69.35 97.564-128.564 109.611 1.42-4.06 2.202-8.418 2.202-12.956 0-21.696-17.651-39.348-39.348-39.348s-39.347 17.651-39.347 39.348c0 4.14.647 8.132 1.838 11.883-56.963-13.329-103.269-54.609-123.632-108.538h19.35c6.446 0 11.69-5.244 11.69-11.69v-7.333c0-19.166-11.831-35.613-28.571-42.441 4.335-6.322 6.877-13.965 6.877-22.192 0-11.508-4.967-21.877-12.868-29.078 15.703-51.064 54.223-92.216 103.621-111.505v3.865c0 6.446 5.244 11.69 11.69 11.69h98.7c6.446 0 11.69-5.244 11.69-11.69v-5.57c50.142 17.97 89.738 58.245 106.778 108.818-11.207 6.942-18.692 19.346-18.692 33.471.004 8.226 2.547 15.869 6.881 22.191zm32.471 2.154c-13.426 0-24.348-10.922-24.348-24.347s10.922-24.347 24.348-24.347c13.425 0 24.347 10.922 24.347 24.347s-10.923 24.347-24.347 24.347z" fill="#d33327" data-original="#000000" style=""/><path d="m361.271 168.368c-.1-.327-.222-.647-.365-.958-1.63-3.528-5.194-5.807-9.081-5.807h-31.159v-5.603c0-5.79-4.71-10.5-10.5-10.5h-21.166c-4.143 0-7.5 3.358-7.5 7.5s3.357 7.5 7.5 7.5h16.666v16.54h-99.332v-16.54h47.666c4.143 0 7.5-3.358 7.5-7.5s-3.357-7.5-7.5-7.5h-52.166c-5.79 0-10.5 4.71-10.5 10.5v5.602h-31.159c-3.887 0-7.451 2.279-9.081 5.807-.144.311-.266.631-.365.958l-17.229 56.517c-.966 3.168-.366 6.649 1.604 9.312.819 1.106 1.851 2.014 3.005 2.713v3.624c0 8.302 3.775 15.791 9.662 20.753v92.714c0 6.893 5.607 12.5 12.5 12.5h191.457c6.893 0 12.5-5.607 12.5-12.5v-92.716c5.887-4.962 9.662-12.45 9.662-20.753v-3.624c1.154-.699 2.186-1.606 3.005-2.713 1.971-2.662 2.57-6.143 1.604-9.31zm-12.042 183.132h-50.85v-14.5c0-4.142-3.357-7.5-7.5-7.5s-7.5 3.358-7.5 7.5v14.5h-54.758v-58.804h54.758v9.304c0 4.142 3.357 7.5 7.5 7.5s7.5-3.358 7.5-7.5v-13.804c0-5.79-4.71-10.5-10.5-10.5h-63.758c-5.79 0-10.5 4.71-10.5 10.5v63.304h-50.85v-84.097c.414.028.831.048 1.25.056 7.11.151 13.824-2.547 18.809-7.361 4.864 4.685 11.38 7.366 18.29 7.366 6.912 0 13.429-2.682 18.293-7.369 4.864 4.687 11.381 7.369 18.294 7.369 6.912 0 13.429-2.683 18.293-7.369 4.864 4.687 11.381 7.369 18.293 7.369 6.913 0 13.43-2.682 18.294-7.369 4.864 4.687 11.381 7.369 18.293 7.369 6.91 0 13.426-2.681 18.29-7.366 4.865 4.698 11.368 7.366 18.294 7.366.171 0 .344-.001.515-.005.419-.008.836-.028 1.25-.056zm9.662-110.968c0 6.46-5.023 11.813-11.198 11.93-.073.001-.147.002-.222.002-3.849 0-7.396-1.911-9.525-5.143-1.955-2.968-5.231-4.74-8.765-4.741-.001 0-.002 0-.003 0-3.537 0-6.818 1.774-8.779 4.745-2.122 3.218-5.681 5.139-9.519 5.139s-7.396-1.921-9.519-5.138c-1.959-2.971-5.239-4.744-8.775-4.744-3.535 0-6.815 1.773-8.774 4.744-2.122 3.217-5.681 5.138-9.519 5.138s-7.396-1.92-9.518-5.138c-1.959-2.971-5.24-4.744-8.775-4.744s-6.816 1.773-8.775 4.744c-2.122 3.217-5.68 5.138-9.518 5.138s-7.396-1.92-9.519-5.138c-1.959-2.971-5.239-4.744-8.774-4.744-3.536 0-6.816 1.773-8.775 4.743-2.122 3.218-5.681 5.139-9.519 5.139s-7.396-1.921-9.519-5.138c-1.961-2.972-5.242-4.746-8.779-4.746-.001 0-.002 0-.003 0-3.533.001-6.81 1.773-8.765 4.742-2.129 3.232-5.677 5.142-9.525 5.142-.074 0-.148 0-.222-.002-6.175-.118-11.198-5.47-11.198-11.93v-2.085h205.781v2.085zm-209.271-17.085 14.279-46.845h27.435v4.938c0 5.79 4.71 10.5 10.5 10.5h108.332c5.79 0 10.5-4.71 10.5-10.5v-4.938h27.435l14.279 46.845z" fill="#d33327" data-original="#000000" style=""/></g></g></g></svg>
