<?xml version="1.0"?>
<svg xmlns="http://www.w3.org/2000/svg" xmlns:xlink="http://www.w3.org/1999/xlink" xmlns:svgjs="http://svgjs.com/svgjs" version="1.1" width="512" height="512" x="0" y="0" viewBox="0 0 64 64" style="enable-background:new 0 0 512 512" xml:space="preserve" class=""><g><g xmlns="http://www.w3.org/2000/svg"><path d="m8 49v2c.249 0 1 1.064 1 3h2c0-2.851-1.29-5-3-5z" fill="#d33327" data-original="#000000" style=""/><path d="m8 57c-.249 0-1-1.064-1-3 0-.61.079-1.206.229-1.723l-1.922-.555c-.201.695-.307 1.483-.307 2.278 0 2.851 1.29 5 3 5 1.193 0 2.2-1.018 2.693-2.722l-1.921-.556c-.277.959-.687 1.278-.772 1.278z" fill="#d33327" data-original="#000000" style=""/><path d="m20 51v-2c-1.71 0-3 2.149-3 5h2c0-1.936.751-3 1-3z" fill="#d33327" data-original="#000000" style=""/><path d="m22.693 51.723-1.922.555c.15.516.229 1.112.229 1.722 0 1.936-.751 3-1 3-.085 0-.495-.319-.772-1.278l-1.921.556c.493 1.704 1.5 2.722 2.693 2.722 1.71 0 3-2.149 3-5 0-.795-.106-1.583-.307-2.277z" fill="#d33327" data-original="#000000" style=""/><path d="m12 43v-2c-.249 0-1-1.064-1-3h-2c0 2.851 1.29 5 3 5z" fill="#d33327" data-original="#000000" style=""/><path d="m12 35c.249 0 1 1.064 1 3 0 .61-.079 1.206-.229 1.723l1.922.555c.201-.695.307-1.483.307-2.278 0-2.851-1.29-5-3-5-1.193 0-2.2 1.018-2.693 2.722l1.921.556c.277-.959.687-1.278.772-1.278z" fill="#d33327" data-original="#000000" style=""/><path d="m63 38c0-5.215-2.944-9-7-9h-1v-2.341c2.009-.916 8-4.188 8-10.659 0-7.369-8.001-14.455-8.341-14.752l-.659-.577-.659.576c-.34.298-8.341 7.384-8.341 14.753 0 6.471 5.991 9.743 8 10.659v2.341h-26v-2.341c2.009-.916 8-4.188 8-10.659 0-7.369-8.001-14.455-8.341-14.752l-.659-.577-.659.576c-.34.298-8.341 7.384-8.341 14.753 0 6.471 5.991 9.743 8 10.659v2.341h-13c-4.056 0-7 3.785-7 9 0 2.938.935 5.422 2.476 7.031-3.782.313-6.476 3.983-6.476 8.969 0 5.215 2.944 9 7 9 2.644 0 4.808-1.615 6-4.179 1.192 2.564 3.356 4.179 6 4.179h36c4.056 0 7-3.785 7-9 0-3.618-1.419-6.545-3.642-8 2.223-1.455 3.642-4.382 3.642-8zm-16-22c0-5.319 5.143-10.816 7-12.628 1.857 1.812 7 7.31 7 12.628 0 4.537-3.878 7.261-6 8.414v-2.112l3.832-5.748-1.664-1.109-2.168 3.252v-5.977l2.316-.772-.633-1.897-3.683 1.228v3.87l-2.219-2.774-1.562 1.249 3.781 4.726v6.064c-2.122-1.153-6-3.877-6-8.414zm-28 0c0-5.319 5.143-10.816 7-12.628 1.857 1.812 7 7.31 7 12.628 0 4.537-3.878 7.261-6 8.414v-6.064l3.781-4.726-1.562-1.249-2.219 2.775v-3.87l-3.684-1.228-.633 1.897 2.317.772v5.977l-2.168-3.252-1.664 1.109 3.832 5.748v2.112c-2.122-1.154-6-3.878-6-8.415zm-12 22c0-4.056 2.103-7 5-7s5 2.944 5 7-2.103 7-5 7-5-2.944-5-7zm8.448 9c-.576.609-1.061 1.346-1.448 2.179-.387-.833-.872-1.57-1.448-2.179zm-7.448 14c-2.897 0-5-2.944-5-7s2.103-7 5-7 5 2.944 5 7-2.103 7-5 7zm7-7c0-4.056 2.103-7 5-7s5 2.944 5 7-2.103 7-5 7-5-2.944-5-7zm46 0c0 4.056-2.103 7-5 7h-31.448c1.524-1.61 2.448-4.08 2.448-7s-.924-5.39-2.448-7h31.448c2.897 0 5 2.944 5 7zm-41-9h-3.448c1.524-1.61 2.448-4.08 2.448-7s-.924-5.39-2.448-7h39.448c2.897 0 5 2.944 5 7s-2.103 7-5 7z" fill="#d33327" data-original="#000000" style=""/><path d="m44 52c0 .551-.449 1-1 1h-3v2h3c1.654 0 3-1.346 3-3s-1.346-3-3-3h-14v2h14c.551 0 1 .449 1 1z" fill="#d33327" data-original="#000000" style=""/><path d="m56 56c0 .551-.449 1-1 1h-10v2h10c1.654 0 3-1.346 3-3s-1.346-3-3-3h-3v2h3c.551 0 1 .449 1 1z" fill="#d33327" data-original="#000000" style=""/><path d="m29 57h6v2h-6z" fill="#d33327" data-original="#000000" style=""/><path d="m21 33h4v2h-4z" fill="#d33327" data-original="#000000" style=""/><path d="m36 37h-1v2h1c.551 0 1 .449 1 1s-.449 1-1 1h-11v2h11c1.654 0 3-1.346 3-3s-1.346-3-3-3z" fill="#d33327" data-original="#000000" style=""/><path d="m56 33h-11v2h11c.551 0 1 .449 1 1s-.449 1-1 1h-1v2h1c1.654 0 3-1.346 3-3s-1.346-3-3-3z" fill="#d33327" data-original="#000000" style=""/><path d="m41 41h6v2h-6z" fill="#d33327" data-original="#000000" style=""/><path d="m25 37h4v2h-4z" fill="#d33327" data-original="#000000" style=""/><path d="m33 33h2v2h-2z" fill="#d33327" data-original="#000000" style=""/><path d="m37 33h2v2h-2z" fill="#d33327" data-original="#000000" style=""/><path d="m48 49h2v2h-2z" fill="#d33327" data-original="#000000" style=""/><path d="m52 49h2v2h-2z" fill="#d33327" data-original="#000000" style=""/><path d="m47 37h4v2h-4z" fill="#d33327" data-original="#000000" style=""/></g></g></svg>
